<svg width="164" height="40" viewBox="0 0 164 40" fill="none" xmlns="http://www.w3.org/2000/svg">
<path fill-rule="evenodd" clip-rule="evenodd" d="M25.4775 10.5998C20.8193 10.5998 17.2544 14.0347 17.2544 20.0713C17.2544 26.108 20.8193 29.5428 25.4775 29.5428C30.1607 29.5428 33.7007 26.108 33.7007 20.0713C33.7007 14.0347 30.1607 10.5998 25.4775 10.5998ZM25.4775 15.4381C26.153 15.4381 26.4131 15.986 26.4131 20.0713C26.4131 24.1316 26.153 24.7045 25.4775 24.7045C24.802 24.7045 24.5419 24.1316 24.5419 20.0713C24.5419 15.9835 24.802 15.4381 25.4775 15.4381ZM9.13378 24.5469C9.13378 24.5469 9.54906 29.5453 10.252 31.7994C11.4754 35.7221 14.1822 40 19.3033 40C23.1309 40 26.2005 37.9461 26.2005 34.146C26.2005 31.4917 24.4293 30.1382 22.6606 30.1382C20.5791 30.1382 19.2007 31.5417 19.2007 33.3379C19.2007 34.5718 19.7337 35.135 20.1434 35.568C20.399 35.8382 20.6067 36.0576 20.6067 36.3575C20.6067 36.7728 20.2689 37.0079 19.8011 37.0079C18.9705 37.0079 17.6596 35.5795 17.6121 33.9884C17.432 27.9567 16.5389 24.702 16.1861 24.0515C15.303 22.3854 14.3924 21.6574 12.4135 20.9294C12.2559 20.8769 12.1784 20.7718 12.1784 20.6942C12.1784 20.5892 12.2834 20.4866 12.4135 20.4341C14.6251 19.8361 15.6408 18.4052 15.6408 16.3237C15.6408 12.6012 12.7538 10.9625 9.00619 10.9625H1.4585C0.415285 10.9625 0 11.4829 0 12.316C0 12.6812 0.105072 13.124 0.235161 13.5919C0.572894 14.7101 0.650447 16.6114 0.650447 20.0713C0.650447 23.5312 0.600412 25.3549 0.235161 26.5508C0.105072 27.0211 0 27.4364 0 27.8266C0 28.6597 0.417787 29.1801 1.4585 29.1801H6.97479C7.75533 29.1801 8.19814 28.6072 8.19814 27.7491C8.19814 27.2327 8.01931 26.8761 7.82418 26.4871L7.82416 26.4871L7.82415 26.487L7.82414 26.487L7.82413 26.487L7.82412 26.487L7.82411 26.4869L7.8241 26.4869L7.82408 26.4869C7.78387 26.4067 7.74297 26.3252 7.7028 26.2405C7.46763 25.7452 7.25999 25.0172 7.25999 23.6638C7.25999 23.0383 7.52017 22.5955 8.06554 22.5955C8.76853 22.5955 8.97867 23.3235 9.13378 24.5469ZM7.80787 15.308C8.45831 15.308 9.18632 15.7258 9.18632 16.8966C9.18632 18.0674 8.45831 18.5102 7.80787 18.5077C7.4176 18.5077 7.20996 18.3526 7.20996 17.9098V15.9059C7.20996 15.4631 7.36506 15.308 7.80787 15.308ZM37.2406 27.8767C37.2406 27.5181 37.3418 27.2367 37.4426 26.9568L37.4482 26.941C37.7334 26.213 37.9436 25.38 37.9436 24.1041V23.7388C37.9436 22.9583 37.8385 22.4629 37.4232 21.6824C36.4601 19.8336 35.4193 17.9874 34.0134 15.5682C33.7662 15.1367 33.5359 14.8035 33.3355 14.5135L33.3354 14.5133L33.3353 14.5132L33.3352 14.5131L33.3352 14.5131L33.3352 14.513L33.3351 14.5129L33.335 14.5129C32.8827 13.8583 32.5824 13.4238 32.5824 12.5762C32.5824 11.8732 33.0777 10.9625 34.3786 10.9625H40.8331C41.8488 10.9625 42.3691 11.7181 42.3691 12.4711C42.3691 13.1368 42.1839 13.5018 42.015 13.8345C41.8736 14.1131 41.7437 14.369 41.7437 14.7602C41.7437 15.2805 41.8738 15.5932 42.1089 16.0861C42.2916 16.4763 42.4467 16.7365 42.7069 16.7365C42.942 16.7365 43.0446 16.5539 43.3048 16.0861C43.5649 15.5907 43.695 15.2005 43.695 14.7602C43.695 14.3279 43.5827 13.9744 43.4712 13.6235C43.3613 13.2778 43.2522 12.9346 43.2522 12.5211C43.2522 11.5054 43.9552 10.96 44.8383 10.96H48.5584C49.4165 10.96 50.0419 11.558 50.0419 12.4686C50.0419 13.2417 49.7354 13.6515 49.2578 14.2902C49.0121 14.6188 48.7211 15.0079 48.4033 15.5382C47.8881 16.3911 47.3569 17.3807 46.8453 18.334C46.6861 18.6307 46.5287 18.9238 46.3744 19.2082C46.3209 19.3076 46.2681 19.4053 46.2161 19.5014C45.3836 21.0417 44.7608 22.194 44.7608 23.7363V24.1016C44.7608 25.3775 44.9959 26.2105 45.2561 26.9385C45.3612 27.2237 45.4637 27.5114 45.4637 27.8742C45.4637 28.6297 44.9684 29.1751 44.1629 29.1751H38.5415C37.7334 29.1776 37.2406 28.6322 37.2406 27.8767ZM47.1799 26.5483C47.0223 26.9135 46.9447 27.2788 46.9447 27.6165C46.9447 28.4771 47.4651 29.1776 48.5559 29.1751H52.6662C53.5493 29.1751 53.9145 28.4721 53.9145 27.8216C53.9145 27.589 53.862 27.3538 53.7844 27.1462C53.6018 26.7559 53.5243 26.3906 53.5243 26.1055C53.5243 25.6376 53.7569 25.3249 54.1997 25.2999C54.6425 25.2749 54.7201 25.2749 55.1629 25.2999C55.6057 25.3274 55.7883 25.6126 55.7883 26.0029C55.7883 26.2881 55.6857 26.6533 55.5031 27.0436C55.3981 27.2788 55.3205 27.564 55.3205 27.8241C55.3205 28.5271 55.7383 29.1776 56.7265 29.1776H62.8432C63.7538 29.1776 64.3792 28.4496 64.3792 27.5389C64.3792 27.2537 64.3017 26.941 64.1716 26.6283C63.1834 24.3893 60.7117 17.3369 59.3583 13.1741C58.8104 11.5079 57.8222 10.9625 56.5213 10.9625H54.3348C53.0865 10.9625 52.2009 11.4829 51.6555 13.2516C50.4597 17.1018 48.5859 23.0884 47.1799 26.5483ZM55.5081 20.409C55.5331 20.6167 55.4031 20.6942 55.1954 20.6942H54.1547C54.0246 20.6942 53.922 20.6167 53.9471 20.4866L54.0222 20.123L54.0224 20.122C54.1836 19.3409 54.3478 18.5454 54.4149 18.2751C54.4674 18.0674 54.545 17.9624 54.7276 17.9624C54.8852 17.9624 54.9878 18.0674 55.0403 18.2751C55.1179 18.5603 55.378 19.6035 55.5081 20.409ZM64.9796 27.8266C64.9796 27.4364 65.0847 27.0211 65.2148 26.5508C65.58 25.3549 65.6301 23.5312 65.6301 20.0713C65.6301 16.6114 65.5525 14.7101 65.2148 13.5919C65.0847 13.124 64.9796 12.6812 64.9796 12.316C64.9796 11.4829 65.3949 10.9625 66.4381 10.9625H71.5391C72.6849 10.9625 73.2828 11.5354 73.2828 12.3935C73.2828 13.019 73.0752 13.4092 72.7875 13.9021C72.5023 14.3974 72.2421 15.0979 72.1896 16.036C72.137 17.1018 72.112 18.17 72.112 19.2357C72.112 20.4316 72.137 21.6299 72.1896 22.8282C72.2421 23.7388 72.6574 24.2342 73.543 24.2342C74.3998 24.2342 74.7805 23.6847 75.173 23.1181C75.5909 22.5151 76.0222 21.8926 77.0554 21.8926C78.5915 21.8926 79.0593 22.9083 78.8516 24.0515C78.669 24.9372 78.5665 25.8478 78.5139 26.9135C78.4364 28.422 77.7334 29.1776 76.2499 29.1776H66.5682C65.525 29.1776 64.9796 28.6572 64.9796 27.8266ZM83.74 26.5508C83.6099 27.0211 83.5049 27.4364 83.5049 27.8266C83.5049 28.6572 83.9226 29.1776 84.9633 29.1751H90.0368C91.2076 29.1751 91.6505 28.6022 91.6505 27.7441C91.6505 27.1462 91.4703 26.7309 91.2352 26.2355C90.9224 25.5851 90.7148 24.8821 90.7148 23.5562C90.7148 22.6456 91.1051 22.4379 91.7305 22.4379C95.6082 22.4379 98.2875 20.9294 98.2875 16.8441C98.2875 12.7588 95.6082 10.9625 91.8606 10.9625H84.9633C83.9201 10.9625 83.5049 11.4829 83.5049 12.316C83.5049 12.6812 83.6099 13.124 83.74 13.5919C84.0777 14.7101 84.1553 16.6114 84.1553 20.0713C84.1553 23.5312 84.1053 25.3549 83.74 26.5508ZM91.3127 15.308C91.9632 15.308 92.6912 15.7258 92.6912 16.8966C92.6912 18.0674 91.9632 18.5102 91.3127 18.5077C90.9224 18.5077 90.7148 18.3526 90.7148 17.9098V15.9059C90.7148 15.4631 90.8699 15.308 91.3127 15.308ZM98.938 27.8266C98.938 27.4364 99.0431 27.0211 99.1732 26.5508C99.5384 25.3549 99.5885 23.5312 99.5885 20.0713C99.5885 16.6114 99.5109 14.7101 99.1732 13.5919C99.0431 13.124 98.938 12.6812 98.938 12.316C98.938 11.4829 99.3533 10.9625 100.396 10.9625H109.295C111.011 10.9625 111.742 11.588 111.742 12.7588C111.742 13.3042 111.847 14.1122 112.002 14.6576C112.34 15.8534 111.612 16.9216 110.311 16.9216C109.487 16.9216 109.004 16.5594 108.548 16.2173C108.139 15.911 107.752 15.6207 107.161 15.6207C106.641 15.6207 106.173 15.9585 106.173 16.714C106.173 17.417 106.668 17.7797 107.319 17.7797C107.744 17.7797 107.953 17.6966 108.163 17.6129C108.376 17.5278 108.591 17.442 109.037 17.442C110.156 17.442 110.756 18.3526 110.756 19.8361C110.756 21.3197 110.158 22.4379 109.037 22.4379C108.591 22.4379 108.377 22.2927 108.164 22.1484C107.954 22.0062 107.746 21.865 107.319 21.865C106.721 21.865 106.173 22.2303 106.173 22.9058C106.173 23.7388 106.746 24.1291 107.579 24.1291C108.658 24.1291 109.108 23.6887 109.541 23.2645C109.943 22.8705 110.331 22.4905 111.196 22.4905C112.575 22.4905 113.123 23.5062 112.863 24.7795C112.732 25.455 112.655 26.2355 112.655 26.9135C112.655 28.422 111.667 29.1776 109.871 29.1776H100.399C99.3533 29.1776 98.938 28.6572 98.938 27.8266ZM113.823 26.5508C113.693 27.0211 113.588 27.4364 113.588 27.8266C113.588 28.6572 114.003 29.1776 115.047 29.1801H120.12C121.291 29.1801 121.734 28.6072 121.734 27.7491C121.734 27.3485 121.565 26.933 121.403 26.537C121.355 26.4186 121.308 26.302 121.266 26.188C121.006 25.485 120.798 24.4968 120.798 23.6638C120.798 23.0383 121.058 22.5955 121.656 22.5955C122.201 22.5955 122.567 23.0133 122.567 23.924C122.567 24.9528 122.548 25.6829 122.533 26.28V26.2804V26.2807C122.523 26.6938 122.514 27.0432 122.514 27.3838C122.514 28.5822 123.165 29.1801 124.493 29.1801H128.371C129.802 29.1801 130.322 28.4771 130.322 27.5139C130.322 27.0028 130.195 26.6773 130.019 26.2258C129.908 25.9414 129.777 25.607 129.647 25.1448C129.099 23.246 128.501 21.735 126.94 20.9294C126.732 20.8268 126.655 20.7218 126.655 20.5917C126.655 20.4891 126.757 20.384 126.94 20.3065C128.085 19.7586 129.179 18.5878 129.179 16.3237C129.179 12.6012 126.289 10.9625 122.542 10.9625H115.047C114.003 10.9625 113.588 11.4829 113.588 12.316C113.588 12.6812 113.693 13.124 113.823 13.5919C114.161 14.7101 114.238 16.6114 114.238 20.0713C114.238 23.5312 114.188 25.3549 113.823 26.5508ZM121.396 15.308C122.046 15.308 122.774 15.7258 122.774 16.8966C122.774 18.0674 122.044 18.5102 121.396 18.5077C121.006 18.5077 120.798 18.3526 120.798 17.9098V15.9059C120.798 15.4631 120.953 15.308 121.396 15.308ZM130.892 27.8266C130.892 27.4364 130.998 27.0211 131.128 26.5508C131.493 25.3549 131.543 23.5312 131.543 20.0713C131.543 16.6114 131.465 14.7101 131.128 13.5918C130.998 13.124 130.892 12.6812 130.892 12.316C130.892 11.4829 131.308 10.9625 132.348 10.9625H137.449C138.465 10.9625 138.958 11.5605 138.958 12.341C138.958 12.7563 138.853 13.069 138.673 13.5893C138.36 14.525 138.283 15.4381 138.283 17.6221C138.283 17.8823 138.438 18.0374 138.62 18.0374C138.75 18.0374 138.905 17.9599 139.063 17.8022C139.999 16.7865 140.311 16.3437 140.937 15.3831C141.119 15.1229 141.222 14.7577 141.222 14.3949C141.222 13.9098 141.063 13.6227 140.906 13.3377C140.751 13.0568 140.597 12.7779 140.597 12.3135C140.597 11.6105 141.039 10.96 142.08 10.96H147.206C148.092 10.96 148.507 11.6105 148.507 12.3385C148.507 12.7813 148.352 13.2741 147.596 14.0046C146.556 14.9928 145.487 16.2937 144.422 17.5946C144.267 17.7772 144.187 18.0099 144.187 18.245C144.187 18.3751 144.212 18.5578 144.292 18.7129C145.41 21.2621 147.909 25.7127 148.845 26.831C149.105 27.1687 149.26 27.5865 149.26 27.9767C149.26 28.6022 148.792 29.1726 147.804 29.1726H141.455C140.622 29.1726 140.179 28.3145 140.126 27.2212C140.074 25.8678 139.684 24.2542 139.138 22.8232C139.033 22.563 138.878 22.4579 138.723 22.4579C138.488 22.4579 138.308 22.6406 138.308 22.9783C138.308 23.7839 138.385 24.9822 138.673 26.0229C138.828 26.6208 138.958 27.1412 138.958 27.7916C138.958 28.5721 138.463 29.1701 137.475 29.1701H132.348C131.308 29.1776 130.892 28.6572 130.892 27.8266ZM149.907 25.8696C149.9 27.2582 149.894 28.3462 151.709 28.9699C153.01 29.4127 154.156 29.5428 156.215 29.5453C161.211 29.5453 163.657 27.0211 163.657 23.4036C163.657 19.9963 162.069 18.4602 158.504 17.2894C156.813 16.7415 156.475 16.4563 156.475 16.0135C156.475 15.6758 156.76 15.4406 157.256 15.4406C157.801 15.4406 158.321 15.6758 159.415 16.7941C159.935 17.3394 160.585 17.5746 161.183 17.5746C162.094 17.5746 162.874 17.0017 162.874 15.961C162.874 15.7258 162.847 15.5182 162.769 15.258C162.432 14.0622 162.327 13.4893 162.196 12.5261C161.964 10.86 159.7 10.5998 156.81 10.5998C152.933 10.5998 149.888 12.4461 149.888 16.2462C149.888 20.0713 152.307 21.5548 154.441 22.3103C156.42 23.0133 156.705 23.2985 156.705 23.7939C156.705 24.2367 156.367 24.4443 155.847 24.4443C154.911 24.4443 153.923 23.974 153.038 22.7782C152.595 22.1803 152.022 21.9451 151.502 21.9451C150.591 21.9451 149.758 22.6481 149.758 23.6363C149.758 23.7388 149.758 23.8439 149.783 23.974C149.914 24.6508 149.911 25.2867 149.907 25.8696Z" fill="#F5EBDC"/>
<path d="M31.9022 1.14078L30.7113 1.96385L29.5205 2.78692C29.3404 2.9095 29.1303 2.95953 28.9276 2.93452C28.725 2.912 28.5298 2.81694 28.3822 2.65683L27.3215 1.50103L26.2608 0.345238C26.0506 0.115079 25.7629 0 25.4752 0C25.1875 0 24.8998 0.115079 24.6897 0.345238L23.629 1.50103L22.5682 2.65683C22.4206 2.81694 22.2255 2.912 22.0229 2.93452C21.8202 2.95703 21.6101 2.9095 21.43 2.78692L20.2391 1.96385L19.0483 1.14078C18.7431 0.93064 18.3829 0.945651 18.1102 1.10826C17.8375 1.27087 17.6499 1.57608 17.6874 1.94634L18.0326 5.37369L18.3779 8.80105C18.4004 9.0237 18.5055 9.21884 18.6606 9.35893C18.8157 9.49903 19.0208 9.58409 19.246 9.58409H25.4752H31.7045C31.9272 9.58409 32.1348 9.49903 32.2899 9.35893C32.445 9.21884 32.5501 9.0237 32.5726 8.80105L32.9179 5.37369L33.2631 1.94634C33.3006 1.57608 33.113 1.27087 32.8403 1.10826C32.5651 0.945651 32.2074 0.93064 31.9022 1.14078Z" fill="#FFAA00"/>
</svg>
